<?xml version="1.0"?>
<svg version="1.1" xmlns="http://www.w3.org/2000/svg" width="200px" height="100px" style=""><path fill="#" d="M28.966796875,67.595703125q0-0.10546875,0.0703125-0.7470703125t0.1845703125-1.564453125t0.2548828125-1.986328125t0.24609375-2.0126953125t0.1845703125-1.669921875t0.0791015625-0.966796875q-0.140625-0.0703125-0.3427734375-0.2021484375t-0.2021484375-0.3076171875q0-0.24609375,0.2373046875-0.3955078125t0.4130859375-0.2197265625q0.0703125-0.896484375,0.17578125-2.49609375t0.3251953125-3.4541015625t0.615234375-3.76171875t1.0458984375-3.462890625t1.564453125-2.5400390625t2.25-0.984375t2.21484375,0.84375t1.4326171875,2.197265625t0.84375,3.005859375t0.439453125,3.287109375t0.1845703125,3.05859375t0.0703125,2.28515625q0.03515625,0.544921875,0.263671875,0.7294921875t0.5009765625,0.2548828125t0.4921875,0.158203125t0.2197265625,0.439453125q0,0.404296875-0.4921875,0.5625t-0.7734375,0.193359375q0.17578125,2.197265625,0.4833984375,4.32421875t0.8173828125,4.2890625q0.0703125,0.404296875,0.193359375,0.8173828125t0.123046875,0.7998046875q0,0.28125-0.193359375,0.4658203125t-0.5009765625,0.2900390625t-0.615234375,0.140625t-0.5185546875,0.03515625q-0.791015625,0-1.3359375-0.298828125t-0.720703125-1.142578125q-0.474609375-2.267578125-0.931640625-4.763671875q-0.38671875-2.162109375-0.38671875-4.201171875q0-0.31640625,0.017578125-0.6328125q-1.4765625,0-2.970703125,0.0703125t-2.865234375,0.52734375q-0.03515625,0.474609375-0.17578125,1.79296875t-0.31640625,2.830078125t-0.3603515625,2.8916015625t-0.2197265625,1.9599609375q-0.03515625,0.24609375-0.3603515625,0.4658203125t-0.703125,0.2373046875t-0.66796875-0.2373046875t-0.2900390625-0.9052734375z M32.25390625,56.943359375q1.37109375-0.31640625,2.7509765625-0.369140625t2.7861328125-0.123046875q-0.0703125-0.439453125-0.03515625-0.9052734375t0.03515625-0.9404296875q0-1.037109375-0.052734375-2.408203125t-0.158203125-2.77734375t-0.2724609375-2.7685546875t-0.3779296875-2.42578125t-0.4482421875-1.6962890625t-0.5185546875-0.6328125q-0.544921875,0.03515625-1.0283203125,0.9404296875t-0.87890625,2.302734375t-0.720703125,3.12890625t-0.544921875,3.3837890625t-0.3603515625,3.076171875t-0.17578125,2.21484375z M46.67974609375,61.232421875q0-1.37109375,0.2900390625-2.4873046875t0.9228515625-1.8896484375t1.6611328125-1.2041015625t2.5048828125-0.4306640625q0.826171875,0,1.6875,0.2197265625t1.4765625,0.8173828125q0-0.3515625,0.0703125-1.4501953125t0.17578125-2.5576171875t0.2197265625-3.05859375t0.2021484375-2.970703125t0.158203125-2.302734375t0.10546875-1.0546875q0.17578125-0.509765625,0.650390625-0.6064453125t0.896484375-0.0966796875q1.107421875,0,1.3623046875,0.3515625t0.2548828125,1.40625q0,3.849609375-0.3427734375,7.6640625t-0.3427734375,7.6640625q0,2.478515625,0.0966796875,4.9833984375t0.6943359375,4.9306640625l0.193359375,0.17578125l0.10546875,0.31640625l-0.263671875,0.404296875q-0.66796875,0.421875-1.546875,0.421875l-0.0703125,0q-0.896484375,0-1.65234375-0.421875q-0.28125-0.17578125-0.4658203125-1.0458984375t-0.2900390625-1.916015625t-0.158203125-2.0126953125t-0.087890625-1.37109375q-0.615234375,1.40625-1.6787109375,2.4169921875t-2.6806640625,1.0107421875q-1.265625,0-2.07421875-0.544921875t-1.2568359375-1.388671875t-0.6328125-1.8896484375t-0.1845703125-2.0830078125z M48.80669921875,61.337890625q0,0.404296875,0.0966796875,1.1953125t0.3076171875,1.58203125t0.5888671875,1.40625t0.9931640625,0.615234375q0.826171875-0.404296875,1.494140625-1.3447265625t1.1513671875-2.07421875t0.755859375-2.267578125t0.2724609375-1.9599609375q0-1.037109375-0.755859375-1.72265625t-1.810546875-0.685546875q-0.31640625,0-0.6416015625,0.123046875t-0.6064453125,0.28125q-0.650390625,0.615234375-1.0107421875,1.1162109375t-0.544921875,1.037109375t-0.2373046875,1.1865234375t-0.052734375,1.51171875z M63.364375,57.0400390625q-0.0439453125-0.5888671875,0.0703125-1.0810546875t0.45703125-0.7998046875t1.0986328125-0.3076171875q0.17578125,0,0.4306640625,0.0439453125t0.5009765625,0.1142578125t0.4130859375,0.2109375t0.1669921875,0.38671875l0,1.986328125q0.685546875-0.791015625,1.494140625-1.1337890625t1.845703125-0.3427734375q0.791015625,0,1.564453125,0.3603515625t1.458984375,0.9580078125t1.1865234375,1.318359375t0.7294921875,1.44140625q0.140625-0.650390625,0.31640625-1.5908203125t0.5185546875-1.8017578125t0.9052734375-1.4765625t1.494140625-0.615234375q1.001953125,0,1.6875,0.720703125t1.1162109375,1.8720703125t0.650390625,2.5751953125t0.3251953125,2.8125t0.10546875,2.5927734375l0,1.8896484375q0,0.2109375-0.158203125,0.3427734375t-0.3955078125,0.2021484375t-0.4921875,0.087890625t-0.3955078125,0.017578125q-0.544921875,0-0.9931640625-0.1669921875t-0.4482421875-0.8525390625l0-1.58203125t-0.03515625-2.0478515625t-0.123046875-2.197265625t-0.228515625-1.9951171875t-0.3603515625-1.44140625t-0.5361328125-0.5625q-0.439453125,0-0.6328125,0.4921875t-0.3251953125,1.248046875t-0.2021484375,1.599609375t-0.193359375,1.599609375t-0.3955078125,1.2392578125t-0.7470703125,0.4833984375q-0.509765625,0-0.896484375-0.4833984375t-0.7646484375-1.2041015625t-0.755859375-1.546875t-0.8349609375-1.546875q-0.45703125-0.73828125-0.984375-1.1953125q-0.474609375-0.439453125-1.072265625-0.421875l-0.087890625,0q-0.791015625,0.03515625-1.2392578125,0.5712890625t-0.685546875,1.3095703125t-0.2900390625,1.6611328125t-0.052734375,1.5556640625q0,0.6328125,0.10546875,1.4765625q0.0703125,0.5625,0.0703125,1.072265625q0,0.263671875-0.017578125,0.509765625q-0.052734375,0.73828125-0.3955078125,1.2392578125t-1.2744140625,0.5009765625q-0.3515625,0-0.87890625-0.0703125t-0.703125-0.474609375q-0.404296875-0.720703125-0.615234375-1.8193359375t-0.31640625-2.267578125t-0.123046875-2.3203125t-0.017578125-1.9775390625q0-0.580078125-0.0439453125-1.1689453125z M85.53337890625,61.021484375q0-1.6171875,0.3779296875-3.1728515625t0.6416015625-3.1025390625q0.0703125-0.404296875,0.5537109375-0.5009765625t0.8173828125-0.0966796875q0.580078125,0,0.931640625,0.17578125q0.140625,0.0703125,0.263671875,0.158203125t0.123046875,0.228515625q0,1.51171875-0.3603515625,2.953125t-0.3603515625,3.05859375q0,0.544921875,0.0791015625,1.0283203125t0.1494140625,0.9580078125l0.10546875,0.509765625q0,0.140625,0.017578125,0.24609375t0.052734375,0.24609375q0,0.31640625-0.4482421875,0.4306640625t-0.7822265625,0.1142578125q-0.509765625,0-0.9404296875-0.2021484375t-0.6767578125-0.6943359375l-0.24609375-0.509765625q-0.2109375-0.404296875-0.2109375-0.9052734375t-0.087890625-0.9228515625z M86.65837890625,50.439453125l0-0.333984375q0-0.826171875,0.4130859375-1.4765625t1.2392578125-0.650390625q0.10546875,0,0.2021484375,0.017578125t0.2021484375,0.017578125q0.2109375,0.03515625,0.5537109375,0.1669921875t0.3427734375,0.4130859375l0,0.03515625q-0.0703125,0.140625-0.087890625,0.2900390625t-0.087890625,0.2548828125l0.03515625-0.03515625q-0.2109375,0.544921875-0.3427734375,0.87890625t-0.2900390625,0.5361328125t-0.3955078125,0.2900390625t-0.6767578125,0.087890625q-0.0703125,0-0.24609375-0.017578125t-0.3779296875-0.0703125t-0.3427734375-0.140625t-0.140625-0.263671875z M93.226796875,61.53125l0-0.509765625q0-0.6328125,0.03515625-1.1953125q0.03515625-0.791015625,0.03515625-1.30078125q0-0.28125,0.03515625-0.6416015625t0.17578125-0.5712890625q0.17578125-0.17578125,0.4130859375-0.3603515625t0.5185546875-0.1845703125q0.896484375,0,1.40625,0.2021484375t0.544921875,0.8349609375l0.0703125,0.544921875q0.31640625-0.755859375,0.84375-1.8720703125t1.2216796875-2.126953125t1.564453125-1.72265625t1.8369140625-0.7119140625q0.896484375,0,1.4765625,0.84375t0.9228515625,2.1533203125t0.4833984375,2.91796875t0.193359375,3.1552734375t0.0703125,2.8212890625t0.123046875,1.9248046875q0.0703125,0.544921875,0.2373046875,1.1513671875t0.1669921875,1.1162109375q0,0.140625-0.2021484375,0.2724609375t-0.4306640625,0.2197265625t-0.4658203125,0.140625t-0.3427734375,0.052734375q-0.685546875,0-0.9755859375-1.0283203125t-0.3603515625-2.5751953125t-0.0703125-3.3486328125t-0.123046875-3.3486328125t-0.5009765625-2.5751953125t-1.2041015625-1.0634765625q-0.755859375,0-1.564453125,0.9755859375t-1.388671875,2.5927734375q-0.5625,1.6171875-0.7734375,3.673828125q-0.0703125,0.650390625-0.0703125,1.30078125q0,1.423828125,0.298828125,2.84765625q0.03515625,0.24609375-0.2021484375,0.369140625t-0.5888671875,0.193359375t-0.7119140625,0.087890625t-0.5537109375,0.017578125q-0.685546875,0-1.0986328125-0.4833984375t-0.6416015625-1.2392578125t-0.3076171875-1.6962890625t-0.0966796875-1.8544921875z M116.0491796875,55.080078125q0-0.826171875,0.3251953125-1.2216796875t1.1865234375-0.3955078125q0.509765625,0,0.9580078125,0.2109375t0.4482421875,0.896484375q0.0703125,1.001953125,0.0703125,2.1005859375t0.193359375,2.0830078125q0.439453125-0.720703125,0.9931640625-1.44140625t1.2216796875-1.283203125t1.458984375-0.9052734375t1.72265625-0.3427734375q1.265625,0,2.14453125,0.52734375t1.4501953125,1.37109375t0.826171875,1.9072265625t0.2548828125,2.1357421875q0,1.65234375-0.5009765625,2.6982421875t-1.3271484375,1.6435546875t-1.8720703125,0.80859375t-2.1005859375,0.2109375q-0.931640625,0-1.740234375-0.3603515625t-1.125-1.3623046875q0-0.28125,0.4130859375-0.3515625t0.5888671875-0.0703125q0.580078125,0,0.861328125,0.31640625q0.2109375,0.24609375,0.4658203125,0.5009765625t0.5361328125,0.2548828125q0.544921875,0,1.142578125-0.3076171875t1.0986328125-0.80859375t0.84375-1.1865234375t0.3427734375-1.40625q0-0.615234375-0.10546875-1.529296875t-0.3603515625-1.7578125t-0.703125-1.458984375t-1.1337890625-0.615234375q-1.037109375,0-1.8720703125,0.94921875t-1.388671875,2.28515625t-0.861328125,2.77734375t-0.3076171875,2.408203125t0.123046875,2.443359375t0.2548828125,3.0673828125t0.2548828125,3.0673828125t0.123046875,2.443359375q0,0.24609375-0.2021484375,0.3955078125t-0.4833984375,0.2373046875t-0.5712890625,0.10546875t-0.4306640625,0.017578125q-0.474609375,0-0.9931640625-0.10546875t-0.7119140625-0.650390625q-0.24609375-0.861328125-0.45703125-2.4521484375t-0.3779296875-3.515625t-0.2900390625-4.04296875t-0.2109375-4.0869140625t-0.1318359375-3.603515625t-0.0439453125-2.6015625z M132.90080078125,61.443359375q0-1.1953125,0.3251953125-2.302734375t0.9755859375-1.9775390625t1.6259765625-1.388671875t2.2587890625-0.5185546875q0.791015625,0,1.7490234375,0.2373046875t1.8017578125,0.703125t1.40625,1.1865234375t0.5625,1.65234375q0,0.439453125-0.1494140625,0.66796875t-0.6064453125,0.228515625l-0.193359375-0.03515625q0.509765625,1.37109375,0.87890625,2.8125t0.720703125,2.8828125q0.140625,0.28125,0.2109375,0.5009765625t0.0703125,0.4306640625q0,0.28125-0.158203125,0.4658203125t-0.4130859375,0.2724609375t-0.52734375,0.123046875t-0.4833984375,0.03515625q-0.755859375,0-1.1337890625-0.263671875t-0.544921875-0.720703125t-0.2021484375-1.0283203125t-0.140625-1.1513671875q-0.2109375,0.685546875-0.5537109375,1.3359375t-0.80859375,1.1689453125t-1.0986328125,0.826171875t-1.423828125,0.3076171875q-1.16015625,0-1.951171875-0.66796875t-1.2744140625-1.6435546875t-0.703125-2.0830078125t-0.2197265625-2.056640625z M135.39689453125,61.197265625q0,0.650390625,0.087890625,1.37109375t0.2900390625,1.423828125t0.5185546875,1.3271484375t0.791015625,1.0986328125q0.861328125-0.931640625,1.2744140625-2.267578125t0.73828125-2.5751953125t0.73828125-2.126953125t1.2744140625-0.8876953125q0.544921875,0,0.9140625,0.193359375q-0.17578125-0.439453125-0.580078125-0.8525390625t-0.9052734375-0.755859375t-1.037109375-0.5625t-1.0107421875-0.2197265625q-0.140625,0-0.3251953125,0.0439453125t-0.2900390625,0.0087890625q-0.720703125,0.2109375-1.1865234375,0.7294921875t-0.755859375,1.2216796875t-0.4130859375,1.44140625t-0.123046875,1.388671875z M148.135234375,60.828125q0-0.966796875,0.1845703125-2.0654296875t0.6328125-2.0126953125t1.2392578125-1.51171875t2.021484375-0.59765625q0.826171875,0,1.599609375,0.2724609375t1.458984375,0.7470703125q0.2109375-0.3515625,0.66796875-0.4306640625t0.80859375-0.0791015625q0.140625,0,0.3955078125,0.017578125t0.5009765625,0.10546875t0.4306640625,0.2109375t0.2197265625,0.3515625q0.140625,1.23046875,0.193359375,2.4521484375t0.158203125,2.4345703125q0.17578125,2.267578125,0.544921875,4.482421875t0.369140625,4.482421875q0,1.072265625-0.0966796875,2.3203125t-0.509765625,2.3115234375t-1.2041015625,1.7666015625t-2.197265625,0.703125q-1.265625,0-1.9423828125-0.4482421875t-1.2216796875-1.5029296875q0.03515625-0.3515625,0.4482421875-0.4658203125t0.7119140625-0.1142578125q0.28125,0,0.5712890625,0.052734375t0.4658203125,0.17578125l0.439453125,0.28125q0.650390625-1.3359375,0.791015625-2.91796875t0.140625-3.05859375q0-1.23046875-0.123046875-2.4345703125t-0.24609375-2.4169921875q-1.23046875,2.232421875-3.744140625,2.232421875q-1.16015625,0-1.8896484375-0.4921875t-1.125-1.248046875t-0.544921875-1.705078125t-0.1494140625-1.8984375z M150.29734375,60.986328125q0,0.439453125,0.03515625,1.1337890625t0.1845703125,1.3623046875t0.4306640625,1.1513671875t0.791015625,0.4833984375q0.966796875,0,1.529296875-0.755859375t0.8876953125-1.8017578125t0.5185546875-2.162109375t0.4921875-1.8369140625q-0.03515625-0.24609375-0.03515625-0.4833984375l0-0.4833984375q-0.404296875-0.755859375-1.177734375-1.3095703125t-1.599609375-0.7470703125q-0.10546875-0.017578125-0.193359375-0.017578125q-0.4921875,0-0.80859375,0.580078125q-0.404296875,0.703125-0.6328125,1.6787109375t-0.3251953125,1.9248046875t-0.0966796875,1.283203125z M163.15873046875,62.1640625q0-1.23046875,0.2724609375-2.900390625t0.9228515625-3.1640625t1.7138671875-2.5400390625t2.6806640625-1.0458984375q1.51171875,0,2.267578125,0.8701171875t0.755859375,2.3466796875q0,0.966796875-0.3603515625,2.1181640625t-1.0283203125,2.1796875t-1.58203125,1.7138671875t-2.0390625,0.685546875l-0.45703125-0.03515625q0,0.474609375,0.140625,1.2744140625t0.4130859375,1.5908203125t0.703125,1.388671875t1.0458984375,0.59765625q0.896484375,0,1.72265625-0.720703125t1.564453125-1.599609375t1.37109375-1.599609375t1.16015625-0.720703125q0.28125,0,0.580078125,0.087890625t0.333984375,0.4921875q0,0.24609375-0.1318359375,0.404296875t-0.2373046875,0.3515625q-0.544921875,0.931640625-1.1865234375,1.775390625t-1.4501953125,1.529296875t-1.7666015625,1.0810546875t-2.1181640625,0.3955078125q-1.51171875,0-2.513671875-0.5361328125t-1.6171875-1.44140625t-0.8876953125-2.091796875t-0.2724609375-2.4873046875z M166.30521484375,60.828125l0.4921875,0.439453125q0.3515625,0.31640625,0.703125,0.140625t0.6328125-0.6416015625t0.5185546875-1.1513671875t0.421875-1.40625t0.2724609375-1.40625t0.087890625-1.142578125l0-0.59765625t-0.052734375-0.6328125t-0.1845703125-0.5009765625t-0.4130859375-0.2548828125q-0.087890625-0.017578125-0.158203125-0.017578125q-0.59765625,0-1.01953125,0.755859375q-0.45703125,0.84375-0.73828125,2.0478515625t-0.404296875,2.4697265625t-0.158203125,1.8984375z"/><path fill="#" d=""/></svg>
